<?xml version="1.0" encoding="UTF-8"?>
<svg version="1.1" xmlns="http://www.w3.org/2000/svg" width="256" height="256">
<path d="M0 0 C84.48 0 168.96 0 256 0 C256 84.48 256 168.96 256 256 C171.52 256 87.04 256 0 256 C0 171.52 0 87.04 0 0 Z " fill="#111111" transform="translate(0,0)"/>
<path d="M0 0 C5.07631346 10.67465916 9.51741279 21.53904984 13.7578125 32.56640625 C14.05824463 33.34540283 14.35867676 34.12439941 14.66821289 34.92700195 C15.24109677 36.41512375 15.81088591 37.90444287 16.37670898 39.39526367 C17.90073556 43.36175178 19.5473062 47.23708634 21.33203125 51.09375 C24.52588167 58.04041993 27.31515872 65.14244623 30.125 72.25 C30.91564152 74.24429749 31.70707788 76.23827443 32.4994812 78.23187256 C33.21358439 80.02930095 33.92546917 81.82761025 34.63720703 83.62597656 C36.04325126 87.10708213 37.50946239 90.55439854 39 94 C41.3533117 91.6466883 42.03858295 89.71557043 43.2421875 86.6171875 C43.66886719 85.53179687 44.09554687 84.44640625 44.53515625 83.328125 C44.97730469 82.18859375 45.41945313 81.0490625 45.875 79.875 C48.39891943 73.38920112 50.89912358 66.9915086 54.10644531 60.81103516 C55.6325676 57.71792719 56.77285945 54.49257485 57.9375 51.25 C60.06383462 45.4569463 62.31254905 39.74247227 64.71875 34.05859375 C66.18643027 30.55495458 67.596284 27.02957235 69 23.5 C69.9989532 20.99958018 70.99954429 18.49981942 72 16 C72.45761719 14.85144531 72.91523438 13.70289062 73.38671875 12.51953125 C74.03060547 10.93205078 74.03060547 10.93205078 74.6875 9.3125 C75.06261719 8.38050781 75.43773437 7.44851562 75.82421875 6.48828125 C76.97890862 4.04463524 78.2998432 2.09212379 80 0 C86.18428209 0 89.43615126 2.26261243 93.84375 6.51171875 C100.41724659 14.09743855 102.9699692 21.6902684 102.43359375 31.6953125 C101.05183632 42.22654477 95.05842344 49.2306484 88.4921875 57.18115234 C86.09365245 60.10475936 83.76747237 63.08418388 81.4375 66.0625 C80.75385376 66.93213379 80.75385376 66.93213379 80.05639648 67.81933594 C77.01212759 71.69356467 73.99825193 75.5900893 71 79.5 C55.97262451 99.08512893 55.97262451 99.08512893 49 107 C45.22031427 106.22976993 43.52040369 104.97047577 41 102 C41 101.34 41 100.68 41 100 C40.195625 100.804375 39.39125 101.60875 38.5625 102.4375 C35 106 35 106 32.26171875 106.4453125 C29 106 29 106 26.39453125 103.4296875 C25.51497161 102.25874001 24.65536906 101.07262888 23.8125 99.875 C22.85076378 98.58035509 21.8885098 97.28609467 20.92578125 95.9921875 C20.44061035 95.32670898 19.95543945 94.66123047 19.45556641 93.97558594 C17.20904961 90.92647256 14.85367083 87.96662789 12.5 85 C11.58272872 83.83380864 10.66606367 82.6671402 9.75 81.5 C9.069375 80.63375 9.069375 80.63375 8.375 79.75 C6.3125 77.125 6.3125 77.125 4.25 74.5 C3.56877075 73.6332666 3.56877075 73.6332666 2.8737793 72.74902344 C1.96043328 71.5861994 1.04783112 70.42279068 0.13598633 69.25878906 C-2.2006236 66.27801457 -4.55064007 63.30956697 -6.92578125 60.359375 C-21.75631932 41.87407088 -21.75631932 41.87407088 -23 32 C-23.15855469 30.86304688 -23.15855469 30.86304688 -23.3203125 29.703125 C-23.94502758 21.17440606 -20.34208932 13.97777862 -14.92578125 7.53125 C-10.16141956 2.67001589 -7.07504696 -0.31444653 0 0 Z " fill="#AF9AF5" transform="translate(89,96)"/>
<path d="M0 0 C5.07631346 10.67465916 9.51741279 21.53904984 13.7578125 32.56640625 C14.05824463 33.34540283 14.35867676 34.12439941 14.66821289 34.92700195 C15.24109677 36.41512375 15.81088591 37.90444287 16.37670898 39.39526367 C17.9021661 43.36547496 19.55033512 47.24481296 21.3359375 51.10546875 C24.50032495 57.98904273 27.27388113 65.02139047 30.0625 72.0625 C30.8410697 74.0202061 31.62037213 75.97761865 32.3999939 77.93490601 C33.14398215 79.80695834 33.88284009 81.68104697 34.62158203 83.55517578 C35.4878601 85.7201038 36.37633524 87.87641461 37.29638672 90.01904297 C37.67166504 90.89834473 38.04694336 91.77764648 38.43359375 92.68359375 C38.76286865 93.4305249 39.09214355 94.17745605 39.43139648 94.94702148 C40.1110808 97.40106418 39.87624394 98.63040037 39 101 C37.3125 103.75 37.3125 103.75 35 106 C32.1796875 106.5234375 32.1796875 106.5234375 29 106 C26.94432609 103.97206381 25.45089896 102.20299375 23.8125 99.875 C22.85076378 98.58035509 21.8885098 97.28609467 20.92578125 95.9921875 C20.44061035 95.32670898 19.95543945 94.66123047 19.45556641 93.97558594 C17.20904961 90.92647256 14.85367083 87.96662789 12.5 85 C11.58272872 83.83380864 10.66606367 82.6671402 9.75 81.5 C9.069375 80.63375 9.069375 80.63375 8.375 79.75 C6.3125 77.125 6.3125 77.125 4.25 74.5 C3.56877075 73.6332666 3.56877075 73.6332666 2.8737793 72.74902344 C1.96043328 71.5861994 1.04783112 70.42279068 0.13598633 69.25878906 C-2.2006236 66.27801457 -4.55064007 63.30956697 -6.92578125 60.359375 C-21.75631932 41.87407088 -21.75631932 41.87407088 -23 32 C-23.15855469 30.86304688 -23.15855469 30.86304688 -23.3203125 29.703125 C-23.94502758 21.17440606 -20.34208932 13.97777862 -14.92578125 7.53125 C-10.16141956 2.67001589 -7.07504696 -0.31444653 0 0 Z " fill="#EBEBEC" transform="translate(89,96)"/>
<path d="M0 0 C3.87766913 3.06488259 8.36155989 8.16223936 9.02734375 13.2265625 C9.25994736 20.0822479 7.92648141 26.73511649 3.36328125 32.0859375 C-2.30303762 37.06409878 -7.90252299 37.93762583 -15.203125 37.78515625 C-19.81847622 37.2157298 -22.88536021 35.63956455 -26.2109375 32.4140625 C-31.42215988 25.60038924 -33.23436645 20.02016955 -32.2109375 11.4140625 C-30.00882447 5.75691007 -26.10697066 1.85170281 -21.2109375 -1.5859375 C-14.31349595 -3.85120251 -6.33045404 -3.62112392 0 0 Z " fill="#EBEBEC" transform="translate(140.2109375,57.5859375)"/>
<path d="M0 0 C0.99 0 1.98 0 3 0 C4.175625 0.0309375 4.175625 0.0309375 5.375 0.0625 C8.0312432 -0.00074389 10.41468487 -0.40907083 13 -1 C13.495 0.485 13.495 0.485 14 2 C12.37028361 4.34310167 10.71652547 6.4570999 8.875 8.625 C7.76242241 9.97108768 6.65181775 11.31880796 5.54296875 12.66796875 C4.9607959 13.37356934 4.37862305 14.07916992 3.77880859 14.80615234 C0.28158091 19.11936782 -3.03676164 23.57151935 -6.36962891 28.01220703 C-10.04231483 32.86560914 -13.93927592 37.46687055 -18 42 C-22.64354511 41.17822123 -24.26235046 38.77351694 -27 35 C-27.7421875 33.00390625 -27.7421875 33.00390625 -28 31 C-27.13986415 29.21091744 -26.26304792 27.42844894 -25.31640625 25.68359375 C-22.94569916 20.85072797 -21.21985597 15.75587373 -19.3671875 10.70703125 C-18.28888651 7.78329513 -17.17646625 4.88514342 -16 2 C-15.34 2 -14.68 2 -14 2 C-13.34 1.34 -12.68 0.68 -12 0 C-11.01 0 -10.02 0 -9 0 C-5.48926273 -1.17024576 -3.58876152 -0.67289278 0 0 Z " fill="#A289F6" transform="translate(156,161)"/>
<path d="M0 0 C5.65495392 0.95216883 9.38508589 4.85164897 13 9.0625 C17.25072148 15.56923964 19.9016298 21.24837507 19 29.0625 C18.01 29.0625 17.02 29.0625 16 29.0625 C15.67 30.7125 15.34 32.3625 15 34.0625 C14.01 34.0625 13.02 34.0625 12 34.0625 C11.67 33.0725 11.34 32.0825 11 31.0625 C10.484375 31.55363281 9.96875 32.04476562 9.4375 32.55078125 C6.15371153 34.5873616 3.83398595 34.3596585 0 34.25 C-1.216875 34.22292969 -2.43375 34.19585937 -3.6875 34.16796875 C-4.780625 34.13316406 -5.87375 34.09835938 -7 34.0625 C-8.32 34.0625 -9.64 34.0625 -11 34.0625 C-12.32 34.0625 -13.64 34.0625 -15 34.0625 C-15.47809344 27.2437903 -13.98546856 22.61165128 -11.1875 16.4375 C-10.83107422 15.61765625 -10.47464844 14.7978125 -10.10742188 13.953125 C-4.0313118 0.08398566 -4.0313118 0.08398566 0 0 Z " fill="#D0C7EF" transform="translate(172,95.9375)"/>
<path d="M0 0 C0.66 0 1.32 0 2 0 C2 1.65 2 3.3 2 5 C2.9075 4.814375 3.815 4.62875 4.75 4.4375 C7.8879808 4.01507951 9.0610119 4.25988986 12 5 C13.83074172 5.11576749 15.6656449 5.17490141 17.5 5.1875 C18.4384375 5.20167969 19.376875 5.21585938 20.34375 5.23046875 C23.08042744 4.99302174 24.60096867 4.24645323 27 3 C29.25 3.875 29.25 3.875 31 5 C31.33 3.35 31.66 1.7 32 0 C32.99 0.33 33.98 0.66 35 1 C34.71108787 7.24050206 33.85382344 12.89628787 30 18 C26.01238385 19.77227384 21.3220245 19 17 19 C16.154375 19.185625 15.30875 19.37125 14.4375 19.5625 C11.13915146 20.15451128 8.28597071 19.54766179 5 19 C2.05558108 18.87873219 2.05558108 18.87873219 -0.5 19.625 C-3 20 -3 20 -6 18 C-5.15096798 14.13544046 -3.78420251 10.46191952 -2.4375 6.75 C-2.08655273 5.77546875 -2.08655273 5.77546875 -1.72851562 4.78125 C-1.15407213 3.18687622 -0.5772707 1.59335233 0 0 Z " fill="#C6B9F0" transform="translate(156,124)"/>
<path d="M0 0 C6.13042434 1.07731306 10.76041615 6.27849198 14.3984375 11.03515625 C16.50046697 14.42672862 17.41946213 17.14881242 16.9375 21.125 C16.2775 20.465 15.6175 19.805 14.9375 19.125 C12.06121715 19.125 9.71565743 19.41265194 6.9375 20.125 C6.2775 20.785 5.6175 21.445 4.9375 22.125 C4.6075 21.465 4.2775 20.805 3.9375 20.125 C3.2775 20.785 2.6175 21.445 1.9375 22.125 C1.6075 21.465 1.2775 20.805 0.9375 20.125 C0.2775 20.785 -0.3825 21.445 -1.0625 22.125 C-1.3925 21.465 -1.7225 20.805 -2.0625 20.125 C-2.7225 20.785 -3.3825 21.445 -4.0625 22.125 C-4.3925 21.465 -4.7225 20.805 -5.0625 20.125 C-5.7225 20.785 -6.3825 21.445 -7.0625 22.125 C-7.7225 21.135 -8.3825 20.145 -9.0625 19.125 C-9.7225 19.455 -10.3825 19.785 -11.0625 20.125 C-10.37621881 16.01502388 -9.11822763 12.3234366 -7.625 8.4375 C-6.97724609 6.73013672 -6.97724609 6.73013672 -6.31640625 4.98828125 C-4.67547123 1.24122402 -4.18161631 0.17067822 0 0 Z " fill="#DAD5EB" transform="translate(172.0625,95.875)"/>
<path d="M0 0 C0.598125 0.185625 1.19625 0.37125 1.8125 0.5625 C4.16408762 1.22093687 4.16408762 1.22093687 7 0 C7.66 0.66 8.32 1.32 9 2 C9.66 1.34 10.32 0.68 11 0 C14.83453269 -0.25563551 18.26779887 0.12183503 22 1 C19.01493342 5.61199861 15.78582183 9.94543341 12.375 14.25 C11.88515625 14.87390625 11.3953125 15.4978125 10.890625 16.140625 C9.00729223 18.52823813 7.1522871 20.8477129 5 23 C3.1875 23 3.1875 23 1 22 C-4.50781644 16.23600605 -4.50781644 16.23600605 -5 12 C-4.2578125 10 -4.2578125 10 -3.125 8 C-1.63630494 5.33492353 -0.62844826 2.99515767 0 0 Z " fill="#8E71F6" transform="translate(133,180)"/>
<path d="M0 0 C0.825 0.20625 1.65 0.4125 2.5 0.625 C3.49 0.625 4.48 0.625 5.5 0.625 C6.7065625 0.6559375 6.7065625 0.6559375 7.9375 0.6875 C10.32764684 0.62920374 12.20242163 0.21792345 14.5 -0.375 C15.82 -0.375 17.14 -0.375 18.5 -0.375 C18.83 0.285 19.16 0.945 19.5 1.625 C21.15 0.965 22.8 0.305 24.5 -0.375 C25.16 0.615 25.82 1.605 26.5 2.625 C24.19 5.265 21.88 7.905 19.5 10.625 C18.51 9.965 17.52 9.305 16.5 8.625 C15.84 9.285 15.18 9.945 14.5 10.625 C13.18 10.625 11.86 10.625 10.5 10.625 C10.17 9.965 9.84 9.305 9.5 8.625 C8.51 9.12 8.51 9.12 7.5 9.625 C7.5 8.965 7.5 8.305 7.5 7.625 C6.901875 7.955 6.30375 8.285 5.6875 8.625 C2.61634276 10.0289576 0.95205002 9.79320466 -2.1875 8.625 C-2.950625 8.295 -3.71375 7.965 -4.5 7.625 C-4.83 8.615 -5.16 9.605 -5.5 10.625 C-6.16 9.965 -6.82 9.305 -7.5 8.625 C-9.60820797 8.9435177 -9.60820797 8.9435177 -11.5 9.625 C-10.625 2.875 -10.625 2.875 -9.5 0.625 C-8.901875 0.83125 -8.30375 1.0375 -7.6875 1.25 C-4.28888196 1.83262024 -3.50163647 -0.52524547 0 0 Z " fill="#B7A6F3" transform="translate(158.5,141.375)"/>
<path d="M0 0 C0.9075 0.185625 1.815 0.37125 2.75 0.5625 C5.81387973 0.97494535 7.1297269 0.74071564 10 0 C11.66965451 0.31802943 13.33678518 0.64984951 15 1 C15.66 0.67 16.32 0.34 17 0 C17.66 0.66 18.32 1.32 19 2 C19.66 2 20.32 2 21 2 C21.66 1.34 22.32 0.68 23 0 C24.33841672 0.31229724 25.67139075 0.64830932 27 1 C27.66 0.835 28.32 0.67 29 0.5 C31.34648094 -0.08662023 32.72600578 0.26907328 35 1 C33.8125 4.4375 33.8125 4.4375 32 8 C27.98206178 9.72197352 23.32242817 9 19 9 C18.154375 9.185625 17.30875 9.37125 16.4375 9.5625 C13.13915146 10.15451128 10.28597071 9.54766179 7 9 C4.05558108 8.87873219 4.05558108 8.87873219 1.5 9.625 C-1 10 -1 10 -4 8 C-3.67 6.68 -3.34 5.36 -3 4 C-2.34 4 -1.68 4 -1 4 C-0.67 2.68 -0.34 1.36 0 0 Z " fill="#C0B1F3" transform="translate(154,134)"/>
<path d="M0 0 C0.66 0.66 1.32 1.32 2 2 C-3.12875468 10.40640254 -3.12875468 10.40640254 -7.5859375 11.8203125 C-10.09347574 12.04827052 -12.48610246 12.10987314 -15 12 C-15.99 12 -16.98 12 -18 12 C-21 12 -21 12 -24 11 C-24.33 11.66 -24.66 12.32 -25 13 C-25.66 12.67 -26.32 12.34 -27 12 C-26.51421457 8.87709365 -26.0013988 6.00419641 -25 3 C-24.401875 3.165 -23.80375 3.33 -23.1875 3.5 C-20.88655664 4.1114124 -20.88655664 4.1114124 -18 4 C-17.01 4 -16.02 4 -15 4 C-14.34 3.835 -13.68 3.67 -13 3.5 C-10.4340173 2.85850432 -8.12477504 2.99064187 -5.5 3.1875 C-2.93088215 3.23707304 -2.93088215 3.23707304 -1.1875 1.5 C-0.795625 1.005 -0.40375 0.51 0 0 Z " fill="#987DF5" transform="translate(161,170)"/>
<path d="M0 0 C6.90967089 0 10.24089065 3.2656133 15 8 C14.67 9.32 14.34 10.64 14 12 C3.18918919 13.72972973 3.18918919 13.72972973 -2 12 C-2.33 12.66 -2.66 13.32 -3 14 C-3.66 14 -4.32 14 -5 14 C-4.49580302 8.95803017 -3.75495562 3.75495562 0 0 Z " fill="#E2E0E9" transform="translate(169,96)"/>
<path d="M0 0 C0.99 0.66 1.98 1.32 3 2 C6.04021693 3.04507457 6.8195064 3.06016453 10 2 C10.33 1.34 10.66 0.68 11 0 C11.33 0.99 11.66 1.98 12 3 C10.26953125 5.6640625 10.26953125 5.6640625 7.8125 8.625 C7.01457031 9.60726562 6.21664062 10.58953125 5.39453125 11.6015625 C3.10741963 13.89240513 2.15062302 14.69580192 -1 15 C-1.98783194 13.92456217 -2.96493943 12.83926783 -3.9375 11.75 C-4.48277344 11.14671875 -5.02804688 10.5434375 -5.58984375 9.921875 C-7.0883018 7.87965516 -7.75545533 6.51828981 -8 4 C-7.34 3.34 -6.68 2.68 -6 2 C-5.01 2.33 -4.02 2.66 -3 3 C-2.01 2.67 -1.02 2.34 0 2 C0 1.34 0 0.68 0 0 Z " fill="#8565F4" transform="translate(136,188)"/>
<path d="M0 0 C0.33 0 0.66 0 1 0 C1 4.29 1 8.58 1 13 C-3.29 13 -7.58 13 -12 13 C-9 11 -9 11 -6 9.3125 C-2.25545201 6.42607759 -1.52101385 4.39404 0 0 Z " fill="#000000" transform="translate(255,243)"/>
<path d="M0 0 C2 3 2 3 3.6875 6 C6.57392241 9.74454799 8.60596 10.47898615 13 12 C13 12.33 13 12.66 13 13 C8.71 13 4.42 13 0 13 C0 8.71 0 4.42 0 0 Z " fill="#000000" transform="translate(0,243)"/>
<path d="M0 0 C4.29 0 8.58 0 13 0 C13 4.29 13 8.58 13 13 C11 10 11 10 9.3125 7 C6.42607759 3.25545201 4.39404 2.52101385 0 1 C0 0.67 0 0.34 0 0 Z " fill="#000000" transform="translate(243,0)"/>
<path d="M0 0 C4.29 0 8.58 0 13 0 C10 2 10 2 7 3.6875 C3.25545201 6.57392241 2.52101385 8.60596 1 13 C0.67 13 0.34 13 0 13 C0 8.71 0 4.42 0 0 Z " fill="#000000" transform="translate(0,0)"/>
<path d="M0 0 C0.99 0.33 1.98 0.66 3 1 C3 2.98 3 4.96 3 7 C2.01 7.495 2.01 7.495 1 8 C1 6.68 1 5.36 1 4 C0.34 4 -0.32 4 -1 4 C-0.67 2.68 -0.34 1.36 0 0 Z " fill="#C2B9E2" transform="translate(188,124)"/>
</svg>
